<svg id="svg2" xmlns:rdf="http://www.w3.org/1999/02/22-rdf-syntax-ns#" xmlns="http://www.w3.org/2000/svg" xml:space="preserve" height="90" width="246" version="1.1" y="0px" x="0px" xmlns:cc="http://creativecommons.org/ns#" xmlns:xlink="http://www.w3.org/1999/xlink" viewBox="0 0 246 90" xmlns:dc="http://purl.org/dc/elements/1.1/">
    <metadata id="metadata73">
        <rdf:RDF>
            <cc:Work rdf:about="">
                <dc:format>image/svg+xml</dc:format>
                <dc:type rdf:resource="http://purl.org/dc/dcmitype/StillImage" />
                <dc:title>Dummy App Logo</dc:title>
                <dc:date>2013-07-19</dc:date>
                <dc:creator>
                    <cc:Agent>
                        <dc:title>Maximilian Mader</dc:title>
                    </cc:Agent>
                </dc:creator>
                <dc:rights>
                    <cc:Agent>
                        <dc:title>2011 - 2013 Tim Düsterhus</dc:title>
                    </cc:Agent>
                </dc:rights>
                <dc:publisher>
                    <cc:Agent>
                        <dc:title>wbbaddons</dc:title>
                    </cc:Agent>
                </dc:publisher>
                <dc:source>https://github.com/wbbaddons/Dummy-App/blob/master/files/images/dummyAppLogo.svg</dc:source>
                <cc:license rdf:resource="http://opensource.org/licenses/lgpl-license.php" />
            </cc:Work>
        </rdf:RDF>
    </metadata>
    <title id="title4">Dummy App Logo</title>
    <desc id="desc6">Dummy App Logo</desc>
    <defs id="defs8">
        <linearGradient id="a">
            <stop id="stop11" stop-color="#efe1d3" offset="0" />
            <stop id="stop13" stop-color="#ddba9c" offset="1" />
        </linearGradient>
        <linearGradient id="f" y2="7.875" gradientUnits="userSpaceOnUse" x2="5.0858998" gradientTransform="matrix(3.9237,0,0,3.9237,0.015114,-47.138)" y1="6.4453001" x1="5.4453001">
            <stop id="stop16" stop-color="#462d18" offset="0" />
            <stop id="stop18" stop-color="#ddba9c" offset="1" />
        </linearGradient>
        <radialGradient id="g" xlink:href="#a" gradientUnits="userSpaceOnUse" cy="2.8206" cx="7.2588" gradientTransform="matrix(0.44599,1.1651,-1.1348,0.43441,29.49,-48.615)" r="4.9864001" />
        <radialGradient id="h" gradientUnits="userSpaceOnUse" cy="16.191" cx="5.2277999" gradientTransform="matrix(2.8578,-0.76575,0.63475,2.3689,-5.1409,-22.998)" r="5.6513">
            <stop id="stop22" stop-color="#6f3603" offset="0" />
            <stop id="stop24" stop-color="#ddba9c" offset="1" />
        </radialGradient>
        <radialGradient id="i" xlink:href="#a" gradientUnits="userSpaceOnUse" cy="11.678" cx="8.1225996" gradientTransform="matrix(1.4422,-0.72518,0.70744,1.4069,2.754,-7.5893)" r="3.1328001" />
    </defs>
    <g id="g27" style="stroke-dasharray:none;stroke:#000000;stroke-width:0.7;stroke-miterlimit:4;fill:#ffffff;" transform="translate(4,60)">
        <path id="path29" style="stroke-dasharray:none;stroke-width:0.7;stroke-miterlimit:4;" d="m86.133-25.27c-0.000031,2.2396-1.1263,3.9388-3.3789,5.0977-1.7448,0.88542-3.8737,1.3281-6.3867,1.3281h-18.359c-1.0156,0-1.5234-0.51432-1.5234-1.543v-20.723c-0.000001-1.0156,0.50781-1.5234,1.5234-1.5234h18.457c6.4453,0.000023,9.6679,2.0182,9.668,6.0547zm-4.2969-0.01953v-11.27c-0.000026-0.92446-0.70315-1.6146-2.1094-2.0703-1.0026-0.31248-2.1289-0.46873-3.3789-0.46875h-15.527v16.68h15.449c1.3411,0.000004,2.5-0.17578,3.4766-0.52734,1.3932-0.49479,2.0898-1.276,2.0898-2.3438z" />
        <path id="path31" style="stroke-dasharray:none;stroke-width:0.7;stroke-miterlimit:4;" d="m115.33-24.43c-0.00003,3.763-3.9844,5.6445-11.953,5.6445-0.22137,0-0.50783-0.0033-0.85938-0.0098-0.35158-0.0065-0.76173-0.01628-1.2305-0.0293-0.013-0.01302-0.0651-0.01953-0.15625-0.01953h-1.9336c-6.6927,0-10.039-1.862-10.039-5.5859v-11.602c-0.000001-1.0286,0.50781-1.543,1.5234-1.543,1.0156,0.000019,1.6081,0.04559,1.7773,0.13672,0.54687,0.19533,0.82031,0.66408,0.82031,1.4062v11.602c-0.000006,1.4193,1.9726,2.1289,5.918,2.1289h6.1523c3.8672,0.000003,5.8008-0.6901,5.8008-2.0703v-11.66c-0.00002-0.74217,0.27993-1.2109,0.83985-1.4062,0.16924-0.09113,0.7682-0.1367,1.7969-0.13672,1.0286,0.000019,1.5429,0.51434,1.543,1.543z" />
        <path id="path33" style="stroke-dasharray:none;stroke-width:0.7;stroke-miterlimit:4;" d="m153.69-20.387c-0.00004,1.0286-0.50785,1.543-1.5234,1.543-1.0157,0-1.6081-0.04557-1.7774-0.13672-0.55992-0.19531-0.83987-0.66406-0.83984-1.4062v-11.543c-0.00003-1.4844-1.7513-2.2265-5.2539-2.2266h-0.80078c-0.14325,0.000015-0.22138,0.0065-0.23437,0.01953-1.6797,0.06512-2.793,0.18231-3.3398,0.35156-1.224,0.3646-1.836,1.1589-1.8359,2.3828v11.016c-0.00002,0.74219-0.27997,1.2109-0.83985,1.4062-0.16929,0.09115-0.76173,0.13672-1.7773,0.13672-1.0287,0-1.543-0.51432-1.543-1.543v-11.055c-0.00002-1.1068-0.39715-1.8555-1.1914-2.2461-0.54689-0.27342-1.4388-0.41014-2.6758-0.41016h-1.0156c-0.10418,0.000015-0.16277-0.0065-0.17578-0.01953-0.26043-0.01301-0.4883-0.02277-0.6836-0.0293-0.19532-0.0065-0.35808-0.0098-0.48828-0.0098-3.5417,0.000015-5.3125,0.75522-5.3125,2.2656v11.504c0,0.74219-0.27344,1.2109-0.82031,1.4062-0.16928,0.09115-0.76172,0.13672-1.7773,0.13672s-1.5234-0.51432-1.5234-1.543v-11.074c0-4.0755,2.9948-6.1133,8.9844-6.1133,1.1849,0.000019,2.1517,0.0098,2.9004,0.0293,0.74869,0.01955,1.3053,0.05536,1.6699,0.10742,1.5495,0.19533,2.9818,0.68361,4.2969,1.4648,1.1719-0.72915,2.6172-1.2044,4.3359-1.4258,0.91143-0.11717,2.4414-0.17576,4.5898-0.17578,5.7682,0.000019,8.6523,2.0378,8.6524,6.1133z" />
        <path id="path35" style="stroke-dasharray:none;stroke-width:0.7;stroke-miterlimit:4;" d="m191.89-20.387c-0.00004,1.0286-0.50785,1.543-1.5234,1.543-1.0157,0-1.6081-0.04557-1.7773-0.13672-0.55993-0.19531-0.83988-0.66406-0.83984-1.4062v-11.543c-0.00004-1.4844-1.7513-2.2265-5.2539-2.2266h-0.80078c-0.14326,0.000015-0.22138,0.0065-0.23438,0.01953-1.6797,0.06512-2.793,0.18231-3.3398,0.35156-1.224,0.3646-1.836,1.1589-1.8359,2.3828v11.016c-0.00002,0.74219-0.27997,1.2109-0.83984,1.4062-0.16929,0.09115-0.76174,0.13672-1.7774,0.13672-1.0287,0-1.543-0.51432-1.543-1.543v-11.055c-0.00002-1.1068-0.39716-1.8555-1.1914-2.2461-0.54689-0.27342-1.4388-0.41014-2.6758-0.41016h-1.0156c-0.10417,0.000015-0.16277-0.0065-0.17578-0.01953-0.26043-0.01301-0.48829-0.02277-0.68359-0.0293-0.19532-0.0065-0.35809-0.0098-0.48828-0.0098-3.5417,0.000015-5.3125,0.75522-5.3125,2.2656v11.504c-0.00001,0.74219-0.27345,1.2109-0.82032,1.4062-0.16927,0.09115-0.76172,0.13672-1.7773,0.13672s-1.5234-0.51432-1.5234-1.543v-11.074c0-4.0755,2.9948-6.1133,8.9844-6.1133,1.1849,0.000019,2.1517,0.0098,2.9004,0.0293,0.74868,0.01955,1.3053,0.05536,1.6699,0.10742,1.5495,0.19533,2.9818,0.68361,4.2969,1.4648,1.1718-0.72915,2.6172-1.2044,4.3359-1.4258,0.91144-0.11717,2.4414-0.17576,4.5898-0.17578,5.7682,0.000019,8.6523,2.0378,8.6523,6.1133z" />
        <path id="path37" style="stroke-dasharray:none;stroke-width:0.7;stroke-miterlimit:4;" d="m220.59-19.137c-0.00003,2.5391-1.5365,4.1992-4.6094,4.9805-1.1328,0.32552-3.6524,0.48828-7.5586,0.48828-0.63804-0.000005-1.0677-0.18881-1.2891-0.56641-0.16929-0.2474-0.25392-0.72917-0.25391-1.4453-0.00001-1.0286,0.51431-1.543,1.543-1.543h1.0547c0.13019-0.000002,0.2018,0.0065,0.21484,0.01953,0.28644,0.01302,0.53058,0.02278,0.73242,0.0293,0.20181,0.0065,0.37433,0.0098,0.51758,0.0098,3.6718-0.000002,5.5078-0.61198,5.5078-1.8359h-12.305c-6.1979,0-9.2969-1.862-9.2969-5.5859v-11.445c0-0.74217,0.27344-1.2109,0.82031-1.4062,0.16927-0.09113,0.76172-0.1367,1.7774-0.13672,1.0156,0.000019,1.5234,0.51434,1.5234,1.543v11.445c0,1.4323,1.7253,2.1484,5.1758,2.1484h12.305v-13.594c-0.00002-1.0286,0.5143-1.543,1.543-1.543,1.0156,0.000019,1.608,0.04559,1.7773,0.13672,0.54685,0.19533,0.82029,0.66408,0.82032,1.4062z" />
        <path id="path39" style="stroke-dasharray:none;stroke-width:0.7;stroke-miterlimit:4;" d="m89.102,7.5352c-0.000034,0.59896-0.20186,1.1003-0.60547,1.5039-0.40368,0.40365-0.90498,0.60547-1.5039,0.60547-0.83336-7E-7-1.5104-0.39063-2.0312-1.1719l-3.8477-5.5859h-18.281l-3.8477,5.5859c-0.416,0.6119-0.866,0.9179-1.347,0.9179-0.482,0-0.944-0.1562-1.387-0.4687-0.495-0.3386-0.742-0.7357-0.742-1.1914,0-0.14323,0.03906-0.27344,0.11719-0.39062l13.711-20.957c0.55988-0.85935,1.5234-1.289,2.8906-1.2891,1.0156,0.000024,1.6927,0.28648,2.0312,0.85938,0.02602,0.03909,0.05532,0.09442,0.08789,0.16602,0.03253,0.07164,0.08136,0.15953,0.14648,0.26367l14.531,20.566c0.05205,0.091148,0.07809,0.28646,0.07813,0.58594zm-10.528-8.2422-6.582-9.707-6.621,9.707z" />
        <path id="path41" style="stroke-dasharray:none;stroke-width:0.7;stroke-miterlimit:4;" d="M116.8,3.1992c0,3.8672-2.97,5.8008-8.91,5.8008h-12.852v3.8086c-0.000005,0.72916-0.27995,1.1914-0.83984,1.3867-0.16928,0.09114-0.75521,0.13671-1.7578,0.13672-1.0156-0.000005-1.5234-0.50782-1.5234-1.5234v-16.816c-0.000002-2.2786,1.0807-3.8541,3.2422-4.7266,1.25-0.55988,3.3073-0.83983,6.1719-0.83984h6.5625c6.6015,0.0000186,9.9023,1.836,9.9024,5.5078zm-4.1602,0.058594v-7.2656c-0.00002-0.98957-0.76174-1.6341-2.2852-1.9336-0.612-0.11717-1.7513-0.17577-3.418-0.17578h-6.4258c-3.6458,0.0000151-5.4688,0.73569-5.4687,2.207v9.4727h12.852c3.164,0.0000034,4.7461-0.76822,4.7461-2.3047z" />
        <path id="path43" style="stroke-dasharray:none;stroke-width:0.7;stroke-miterlimit:4;" d="M145.31,3.1992c0,3.8672-2.97,5.8008-8.9,5.8008h-12.852v3.8086c-0.00001,0.72916-0.27996,1.1914-0.83985,1.3867-0.16927,0.09114-0.75521,0.13671-1.7578,0.13672-1.0156-0.000005-1.5234-0.50782-1.5234-1.5234v-16.816c0-2.2786,1.0807-3.8541,3.2422-4.7266,1.25-0.55988,3.3073-0.83983,6.1719-0.83984h6.5625c6.6015,0.0000186,9.9023,1.836,9.9023,5.5078zm-4.1602,0.058594v-7.2656c-0.00002-0.98957-0.76174-1.6341-2.2852-1.9336-0.612-0.11717-1.7513-0.17577-3.418-0.17578h-6.4258c-3.6458,0.0000151-5.4688,0.73569-5.4688,2.207v9.4727h12.852c3.164,0.0000034,4.7461-0.76822,4.7461-2.3047z" />
    </g>
    <g id="g45" transform="translate(4,60)">
        <path id="path47" style="stroke:#66666f;stroke-width:0.39236999;stroke-opacity:0.94118;fill:url(#f);" d="M12.023-3.5639,28.28-3.824c0-2.2426-0.45361-2.6516,0.15771-3.5575,0.62016-0.91899,0.06536-3.0592-0.15139-3.879-2.2978-8.6914,0.47055-7.8781,0.47055-11.855h-16.994c0.09408,6.4885,2.8543,2.6457,0.2601,19.551z" />
    </g>
    <g id="g49" transform="translate(4,60)">
        <path id="path51" style="stroke:#66666f;stroke-width:0.39236999;stroke-opacity:0.94118;fill:url(#h);" d="m0.24493,15.79s1.2008-7.2588,4.4087-14.022c3.208-6.7628,13.395-6.3726,13.395-6.3726s9.1904-0.47686,10.318-0.2601c1.1271,0.21674,3.5981,1.4306,4.812,2.6011,1.2138,1.1705,5.5923,5.5923,6.3726,6.8061,0.34179,0.31904,2.1592,3.1255,3.2434,6.3072,0.90854,2.666,1.6969,4.9523,1.3019,4.9523-9.3532,0-43.852-0.01236-43.852-0.01236z" />
    </g>
    <g id="g53" transform="translate(4,60)">
        <path id="path55" style="stroke:#666666;stroke-width:0.39236999;fill:url(#i);" d="M7.7922,15.755c1.0422-5.149,2.5898-15.247,12.087-15.196,11.485,0.06129,12.088,15.227,12.088,15.227z" />
    </g>
    <g id="g57" transform="translate(4,60)">
        <path id="path59" style="stroke:#666666;stroke-width:0.39236999;fill:url(#g);" d="m11.224-21.517s-8.2986-4.8305-6.9362-13.748c1.3625-8.9179,6.8742-10.157,6.8742-10.157s4.397-1.6721,8.6083-1.6721c4.2112,0,11.891,1.2592,14.12,2.4772,1.3656,0.74633,2.7771,2.5383,3.9758,4.4017,0.96708,1.5033,1.7979,3.2138,2.1552,5.0116,0.49855,2.5081,0.2477,2.9726,0.2477,2.9726s-1.8579,1.4244,0,4.0874,2.2295,4.2112,2.4772,5.326c0.2477,1.1147-1.1147,1.1767-1.3625,1.3005-0.2477,0.12386-1.8579,0.6193-0.86702,2.0437s-1.0528,1.734-1.0528,1.734,1.6015,0.83513,0.49542,2.4153c-0.86702,1.2386,0.49544,2.8488,0.49544,2.8488s0.49545,2.4153-2.1056,2.9726c-2.3398,0.50138-7.8032,0.06193-9.5372-1.9818s-2.663-3.9635-4.6448-7.2458-2.5391-2.2295-6.5646-2.4153c-4.0255-0.18579-6.3788-0.37158-6.3788-0.37158z" />
        <g id="g61" transform="translate(0.12145,0.47786)">
            <path id="path63" style="fill:#666666;" d="m5.0602,2.5153c0,0.36307-0.29432,0.65739-0.65739,0.65739v-0.65739z" transform="matrix(-10.052,0,0,-10.052,64.144,-9.1654)" />
            <path id="path65" style="fill:#666666;" d="m5.0602,2.5153c0,0.36307-0.29432,0.65739-0.65739,0.65739v-0.65739z" transform="matrix(10.052,0,0,10.052,-24.377,-59.76)" />
            <path id="path67" style="fill:#d9c031;" d="m5.0602,2.5153c0,0.36307-0.29432,0.65739-0.65739,0.65739v-0.65739z" transform="matrix(0,-10.052,10.052,0,-5.409,9.8135)" />
            <path id="path69" style="fill:#d9c031;" d="m5.0602,2.5153c0,0.36307-0.29432,0.65739-0.65739,0.65739v-0.65739z" transform="matrix(0,10.052,-10.052,0,45.161,-78.703)" />
        </g>
    </g>
</svg>