<?xml version="1.0" encoding="UTF-8" standalone="no"?>
<svg xmlns:rdf="http://www.w3.org/1999/02/22-rdf-syntax-ns#" xmlns="http://www.w3.org/2000/svg" xml:space="preserve" version="1.1" xmlns:cc="http://creativecommons.org/ns#" xmlns:dc="http://purl.org/dc/elements/1.1/" viewBox="0 0 1000 300">
	<title>Dummy App Background</title>
	<desc>Dummy App background image</desc>
	<!--
		@author		Maximilian Mader
		@copyright	2011 Tim Düsterhus 
		@license	GNU Lesser General Public License <http://opensource.org/licenses/lgpl-license.php> 
	--> 
	<defs>
		<linearGradient id="c" gradientUnits="userSpaceOnUse" x2="94" x1="44" y1="12">
			<stop stop-color="#2b7ceb" stop-opacity="0" offset="0"/>
			<stop stop-color="#2d76c3" stop-opacity=".54444" offset="1"/>
		</linearGradient>
		<linearGradient id="b" y2="1" gradientUnits="userSpaceOnUse" x2="19" y1="2" x1="74">
			<stop stop-color="#198ee9" stop-opacity="0" offset="0"/>
			<stop stop-color="#4c789f" stop-opacity=".67778" offset="1"/>
		</linearGradient>
		<linearGradient id="a" y2="3" gradientUnits="userSpaceOnUse" x2="53" y1="13" x1="6">
			<stop stop-color="#2792e1" stop-opacity=".088889" offset="0"/>
			<stop stop-color="#2792e1" stop-opacity="0" offset="1"/>
		</linearGradient>
	</defs>
	<g transform="matrix(9.9947 0 0 9.9947 .52865 .08459)">
		<path opacity=".37710" fill="url(#a)" d="m-0.052893 11.998c7.6667-4.0001 15.386-7.998 23.053-11.998h45c-2 3-3 11.624 0 18.624-16.182-9.1101-59.5-18.186-60 5.376-5.0513-3.998-5.5516-4.498-8.0529-6.499"/>
	</g>
	<path fill-opacity=".33077" fill="#32445a" d="m1e3 120.02-289.85 149.92h289.85z"/>
	<g opacity=".49495" transform="matrix(9.9947 0 0 9.9947 .52865 .08459)">
		<path fill="url(#c)" d="m94 2.6667e-7c-6 8-54 44-47 0"/>
	</g>
	<g opacity=".71044" transform="matrix(9.9947 0 0 9.9947 .52865 .08459)">
		<path fill="url(#b)" d="m69 2.6667e-7c-3 5-33 12-64 0"/>
	</g>
	<path fill-opacity=".17308" fill="#4e97db" d="m820.1 299.93h179.9v-139.93c-29.98-19.99-259.86-119.94-449.76-119.94-449.76 19.993-549.71 259.87-549.71 259.87 299.84-319.84 689.63-169.91 819.57 0z"/>
</svg>
